<svg xmlns="http://www.w3.org/2000/svg" viewBox="0 0 97.28 114.07"><defs><style>.cls-1{fill:#e4e1ea;}.cls-1,.cls-2,.cls-3{fill-rule:evenodd;}.cls-2{fill:#372f42;}.cls-3{fill:#d7b8ff;}</style></defs><g id="Layer_2" data-name="Layer 2"><g id="OBJECTS"><path class="cls-1" d="M50.18,102.28l-21.36,11.3a4.12,4.12,0,0,1-5.49-5.7l8-13.87L2.2,78.68A4,4,0,0,1,0,75V27.56a4,4,0,0,1,2.2-3.65L46.72.49a4,4,0,0,1,3.84,0L95.08,23.91a4,4,0,0,1,2.2,3.65V75a4,4,0,0,1-2.2,3.64L50.56,102.11l-.38.17Zm7.7-84v2.32l21,11.05a4.13,4.13,0,0,1,0,7.3L57.88,50v2.32l27-14.22v-5.6l-27-14.22Zm-18.48,34V50L18.39,39a4.13,4.13,0,0,1,0-7.3l21-11V18.31l-27,14.22v5.6Z"/><polygon class="cls-2" points="89.04 30.04 68.84 19.42 53.76 11.48 53.76 23.12 76.97 35.33 53.76 47.54 53.76 59.17 68.84 51.24 89.04 40.62 89.04 30.04"/><polygon class="cls-3" points="43.52 23.12 43.52 11.48 28.44 19.42 8.24 30.04 8.24 40.62 28.44 51.24 43.52 59.17 43.52 47.54 20.31 35.33 43.52 23.12"/></g></g></svg>